<?xml version="1.0" encoding="UTF-8"?>
<!-- Created with Inkscape (http://www.inkscape.org/) -->
<svg width="822.67" height="750.67" version="1.1" viewBox="0 0 822.67 750.67" xmlns="http://www.w3.org/2000/svg">
 <g transform="translate(3.464 43.748)">
  <path d="m121.33 430.67v-165.33h574.67v330.67h-574.67zm534.67 59.333v-44.667h-93.333v89.333h93.333zm-252-1.3333v-44.667h-90.667v89.333h90.667zm132 0.66667v-42.667h-89.333v85.333h89.333zm-269.33-2.6667v-42.667h-89.333v85.333h89.333zm390.67-127.33v-43.333h-93.333v86.667h93.333zm-249.33-2v-42.667h-90.667v85.333h90.667zm130.67 0v-41.333h-90.667v82.667h90.667zm-274.67-2v-40.667h-85.333v81.333h85.333z" fill="#d9ecf5"/>
  <path d="m573.33 490v-34h72v68h-72zm-249.33-1.3333v-34h69.333v68h-69.333zm133.33 0.66667v-32h68v64h-68zm-269.33-2.6667v-32h68v64h-68zm386.67-127.33v-32.667h72v65.333h-72zm-246.67-2v-32h69.333v64h-69.333zm130.67 0v-30.667h69.333v61.333h-69.333zm-269.33-2v-30h64v60h-64z" fill="#57c4fc"/>
  <path d="m121.33 201.33v-53.333h58.667v72h82.667v-72h97.333v77.333h90.667v-77.333h102.67v76h92v-76h50.667v106.67h-574.67zm249.33-51.333v-64.667h69.333v129.33h-69.333zm193.33-3.3333v-66.667h70.667v133.33h-70.667zm-373.33-0.66667v-63.333h61.333v126.67h-61.333z" fill="#0094fe"/>
  <path d="m110.67 372v-234.67h69.333v-65.333h82.667v65.333h97.333v-62.667h90.667v62.667h102.67v-68h92v68h61.333v469.33h-596zm585.33 58.667v-165.33h-574.67v330.67h574.67zm-133.33 59.333v-44.667h93.333v89.333h-93.333zm82.667 0v-34h-72v68h72zm-332-1.3333v-44.667h90.667v89.333h-90.667zm80 0v-34h-69.333v68h69.333zm53.333 0.66667v-42.667h89.333v85.333h-89.333zm78.667 0v-32h-68v64h68zm-348-2.6667v-42.667h89.333v85.333h-89.333zm78.667 0v-32h-68v64h68zm308-127.33v-43.333h93.333v86.667h-93.333zm82.667 0v-32.667h-72v65.333h72zm-329.33-2v-42.667h90.667v85.333h-90.667zm80 0v-32h-69.333v64h69.333zm50.667 0v-41.333h90.667v82.667h-90.667zm80 0v-30.667h-69.333v61.333h69.333zm-349.33-2v-40.667h85.333v81.333h-85.333zm74.667 0v-30h-64v60h64zm442.67-154v-53.333h-50.667v76h-92v-76h-102.67v77.333h-90.667v-77.333h-97.333v72h-82.667v-72h-58.667v106.67h574.67zm-256-51.333v-64.667h-69.333v129.33h69.333zm194.67-3.3333v-66.667h-70.667v133.33h70.667zm-382.67-0.66667v-63.333h-61.333v126.67h61.333z"/>
 </g>
</svg>
