<?xml version="1.0" encoding="UTF-8" standalone="no"?>
<!-- Created with Inkscape (http://www.inkscape.org/) -->

<svg
   version="1.1"
   id="svg1"
   width="800"
   height="800"
   viewBox="0 0 800 800"
   sodipodi:docname="En_desarrolo_icon.svg"
   inkscape:version="1.4.3 (0d15f75, 2025-12-25)"
   xmlns:inkscape="http://www.inkscape.org/namespaces/inkscape"
   xmlns:sodipodi="http://sodipodi.sourceforge.net/DTD/sodipodi-0.dtd"
   xmlns="http://www.w3.org/2000/svg"
   xmlns:svg="http://www.w3.org/2000/svg">
  <defs
     id="defs1" />
  <sodipodi:namedview
     id="namedview1"
     pagecolor="#ffffff"
     bordercolor="#000000"
     borderopacity="0.25"
     inkscape:showpageshadow="2"
     inkscape:pageopacity="0.0"
     inkscape:pagecheckerboard="0"
     inkscape:deskcolor="#d1d1d1"
     inkscape:zoom="2.4617834"
     inkscape:cx="441.14361"
     inkscape:cy="548.99225"
     inkscape:window-width="1920"
     inkscape:window-height="991"
     inkscape:window-x="-9"
     inkscape:window-y="-9"
     inkscape:window-maximized="1"
     inkscape:current-layer="g1" />
  <g
     inkscape:groupmode="layer"
     inkscape:label="Image"
     id="g1">
    <g
       id="g82"
       transform="translate(142.77974,15.421954)">
      <path
         style="fill:#ec5355"
         d="M 238.89326,511.02218 C 191.64451,506.05426 148.85131,485.48103 114.67184,451.30156 55.267555,391.89727 38.142178,303.82136 70.911559,226.24215 c 13.318178,-31.52986 34.299451,-58.44208 63.480311,-81.42483 27.60108,-21.73852 57.18531,-34.90047 91.43362,-40.67859 l 12.93224,-2.18183 25.06776,0.41175 25.06777,0.41176 11,2.25871 c 22.50528,4.62118 48.25614,14.67869 66.30012,25.89482 12.45277,7.74063 29.49144,21.46822 40.57919,32.69354 71.43317,72.31946 78.15858,186.70521 15.78188,268.41798 -7.2826,9.54011 -27.70498,29.9625 -37.2451,37.24509 -41.91609,31.99729 -95.02668,47.13492 -146.41609,41.73163 z m 51,-27.34099 c 67.59458,-11.87726 123.24127,-63.72437 139.92282,-130.36881 4.00346,-15.99424 5.011,-24.77738 5.011,-43.68301 0,-9.93445 -0.57966,-21.58469 -1.29364,-26 -6.48797,-40.12223 -23.84946,-73.48351 -52.84052,-101.53658 -25.5091,-24.68377 -55.8018,-40.21239 -90.79966,-46.54564 -14.07636,-2.54728 -44.14945,-2.55863 -58,-0.0219 -48.44729,8.87315 -90.33885,36.86429 -117.10802,78.24935 -40.15414,62.07819 -37.370733,142.63849 6.97421,201.85477 28.85982,38.53813 71.88811,63.51655 119.63381,69.44882 10.396,1.29167 37.66938,0.50609 48.5,-1.397 z"
         id="path87" />
      <path
         style="fill:#7e7e7e"
         d="m 118.14326,145.5401 c -3.1625,-4.05808 -5.75,-7.77203 -5.75,-8.25322 0,-1.02659 19.51601,-17.17326 20.69745,-17.12415 0.70856,0.0295 11.33363,13.24845 12.10122,15.05551 0.2774,0.65305 -9.72667,9.14787 -17.79867,15.11351 l -3.5,2.58669 z m 265.82909,-1.97611 c -5.2685,-4.16096 -9.57909,-7.93996 -9.57909,-8.39777 0,-0.45781 2.50357,-4.03205 5.56349,-7.94276 l 5.56349,-7.11038 6.55877,5.25815 c 3.60732,2.89197 8.29051,6.76104 10.40708,8.59791 l 3.84831,3.33977 -5.58321,6.91023 c -3.07076,3.80063 -5.94693,6.91023 -6.39148,6.91023 -0.44455,0 -5.11886,-3.40442 -10.38736,-7.56538 z M 240.39326,87.129368 v -15 h 19.5 19.5 v 15 15.000002 h -19.5 -19.5 z"
         id="path86" />
      <path
         style="fill:#ec4447"
         d="m 249.88554,335.33241 c -11.79779,-4.07968 -20.49228,-15.83355 -20.49228,-27.70304 0,-8.43454 5.31805,-18.4497 12.55743,-23.64863 3.21476,-2.30866 11.1272,-13.31673 34.06498,-47.39239 l 29.87759,-44.38524 2.28139,-0.0369 c 1.25476,-0.0203 2.49797,0.52755 2.76269,1.21739 0.26472,0.68985 -4.9243,24.17577 -11.53115,52.19093 l -12.01246,50.93667 1.18019,5.71392 c 4.46486,21.61672 -17.51766,40.42808 -38.68838,33.10726 z M 265.3316,319.3021 c 3.92745,-2.10631 7.06166,-7.28708 7.06166,-11.67273 0,-4.38565 -3.13421,-9.56642 -7.06166,-11.67274 -6.59962,-3.53941 -14.65407,-1.21154 -18.11107,5.2344 -3.53941,6.59962 -1.21154,14.65408 5.2344,18.11107 1.87392,1.005 4.77117,1.82727 6.43833,1.82727 1.66717,0 4.56442,-0.82227 6.43834,-1.82727 z"
         id="path85" />
      <path
         style="fill:#b74042"
         d="M 241.39326,485.07819 C 181.93744,477.69097 131.67223,441.79505 104.43907,387.27501 80.541819,339.43338 80.593008,279.56541 104.57202,231.7746 c 25.73434,-51.28921 71.74369,-86.07029 127.32124,-96.24935 13.85055,-2.53673 43.92364,-2.52538 58,0.0219 34.99786,6.33325 65.29056,21.86187 90.79966,46.54564 28.99106,28.05307 46.35255,61.41435 52.84052,101.53658 0.71398,4.41531 1.29364,16.06555 1.29364,26 0,18.90563 -1.00754,27.68877 -5.011,43.68301 -13.15062,52.53803 -51.37012,97.3441 -101.45175,118.93547 -10.98376,4.73536 -26.3616,9.30555 -38.47107,11.43334 -10.83062,1.90309 -38.104,2.68867 -48.5,1.397 z m 48.5,-22.96368 c 31.47116,-6.60921 58.62199,-21.10713 80.5,-42.98514 21.89518,-21.89518 36.32457,-48.993 43.13191,-81 l 2.23317,-10.5 v -19.5 -19.5 l -2.23317,-10.5 c -6.80734,-32.00701 -21.23673,-59.10482 -43.13191,-81 -21.98178,-21.98179 -48.72457,-36.22333 -81,-43.13556 l -10.5,-2.24872 h -19 -19 l -10.5,2.24872 c -32.27542,6.91223 -59.01821,21.15377 -81,43.13556 -21.89517,21.89518 -36.32456,48.99299 -43.1319,81 l -2.23317,10.5 v 19.5 19.5 l 2.23317,10.5 c 14.49842,68.16925 66.36901,116.53162 135.1319,125.99239 10.73168,1.47653 37.10959,0.38483 48.5,-2.00725 z"
         id="path84" />
      <path
         style="fill:#626262"
         d="m 102.89326,138.97935 c -3.311524,-1.68003 -17.499995,-20.3591 -17.499995,-23.03868 0,-2.87544 3.481923,-6.32158 18.355005,-18.166431 10.19504,-8.119271 13.46844,-9.704071 16.27522,-7.879558 2.91146,1.892561 17.35551,20.967659 17.36224,22.928919 0.004,1.20683 -1.00497,3.28676 -2.24247,4.62206 -3.31465,3.57661 -23.1608,19.49537 -26.43285,21.20202 -3.23088,1.68516 -3.15751,1.68098 -5.81715,0.33167 z m 306.10166,-0.3738 c -1.59409,-0.83133 -4.56289,-2.96606 -6.59732,-4.74384 -2.03444,-1.77779 -7.41092,-6.15734 -11.94774,-9.73234 -8.46323,-6.669 -10.06216,-8.52811 -10.04906,-11.68426 0.007,-1.67517 14.79413,-20.881062 17.36224,-22.550429 2.80678,-1.824513 6.08018,-0.239713 16.27522,7.879558 14.87308,11.844851 18.355,15.290991 18.355,18.166431 0,4.14252 -16.9065,24.28546 -20.29705,24.18254 -0.11162,-0.003 -1.5072,-0.68634 -3.10129,-1.51766 z M 222.89326,71.169882 c -5.03821,-2.097694 -9.5245,-9.879201 -9.47803,-16.439737 0.029,-4.093777 3.05006,-10.488405 6.42553,-13.600777 l 2.71133,-2.5 35.72015,-0.285415 35.72015,-0.285415 3.45044,2.293486 c 4.13569,2.748973 7.95043,9.839374 7.95043,14.777344 0,4.915216 -3.80873,12.024475 -7.89788,14.741928 l -3.39788,2.258072 -34.60212,-0.06339 c -19.03116,-0.03486 -35.50212,-0.438108 -36.60212,-0.8961 z"
         id="path83" />
      <path
         style="fill:#000000"
         d="m 255.45926,449.37937 -2.15558,-1.75 0.29479,-8.96476 0.29479,-8.96476 2.75,-1.53524 2.75,-1.53524 2.75,1.53524 2.75,1.53524 0.2948,8.96476 0.29479,8.96476 -2.15558,1.75 c -1.18556,0.9625 -2.95587,1.75 -3.93401,1.75 -0.97813,0 -2.74844,-0.7875 -3.934,-1.75 z M 159.2826,410.46688 c -1.61091,-0.43056 -3.88934,-4.33719 -3.88934,-6.66873 0,-1.51441 9.61758,-10.98808 12.81706,-12.62527 l 2.31706,-1.18566 2.41707,1.58373 c 1.32938,0.87104 2.70824,2.74386 3.06412,4.1618 l 0.64706,2.57809 -6.3523,6.40926 c -6.04626,6.10049 -7.28349,6.74564 -11.02073,5.74678 z m 189.44109,-4.58751 c -2.80569,-2.8875 -5.63481,-6.29268 -6.28691,-7.56706 l -1.18566,-2.31706 1.58372,-2.41706 c 0.87105,-1.32939 2.75063,-2.70994 4.17686,-3.0679 l 2.59313,-0.65084 6.50272,6.50272 6.50272,6.50272 -0.65762,2.9941 c -0.62036,2.82447 -3.81819,5.27038 -6.8906,5.27038 -0.68041,0 -3.53267,-2.3625 -6.33836,-5.25 z M 117.07998,311.33568 c -2.22984,-2.46393 -2.1423,-6.48404 0.18708,-8.5921 l 1.87379,-1.69576 8.84097,0.29077 8.84096,0.29078 1.53524,2.75 1.53524,2.75 -1.53546,2.75 -1.53546,2.75 -9.02783,0.28505 -9.02782,0.28506 z m 265,0 c -2.22984,-2.46393 -2.1423,-6.48404 0.18708,-8.5921 l 1.87379,-1.69576 8.84097,0.29077 8.84096,0.29078 1.53524,2.75 1.53524,2.75 -1.53546,2.75 -1.53546,2.75 -9.02783,0.28505 -9.02782,0.28506 z M 162.72369,218.87937 c -2.80569,-2.8875 -5.63481,-6.29268 -6.28691,-7.56706 l -1.18566,-2.31706 1.58372,-2.41706 c 0.87105,-1.32939 2.75063,-2.70994 4.17686,-3.0679 l 2.59313,-0.65084 6.50272,6.50272 6.50272,6.50272 -0.65762,2.9941 c -0.62036,2.82447 -3.81819,5.27038 -6.8906,5.27038 -0.68041,0 -3.53267,-2.3625 -6.33836,-5.25 z m 183.55891,4.58751 c -1.61091,-0.43056 -3.88934,-4.33719 -3.88934,-6.66873 0,-1.51441 9.61758,-10.98808 12.81706,-12.62527 l 2.31706,-1.18566 2.41707,1.58373 c 1.32938,0.87104 2.70824,2.74386 3.06412,4.1618 l 0.64706,2.57809 -6.3523,6.40926 c -6.04626,6.10049 -7.28349,6.74564 -11.02073,5.74678 z m -90.82334,-38.08751 -2.15558,-1.75 0.29479,-8.96476 0.29479,-8.96476 2.75,-1.53524 2.75,-1.53524 2.75,1.53524 2.75,1.53524 0.2948,8.96476 0.29479,8.96476 -2.15558,1.75 c -1.18556,0.9625 -2.95587,1.75 -3.93401,1.75 -0.97813,0 -2.74844,-0.7875 -3.934,-1.75 z"
         id="path82" />
    </g>
    <path
       style="fill:#ffffff;fill-opacity:1;stroke:#0a4f00;stroke-width:0.270209"
       d="m 380.8162,478.59852 c -9.68683,-1.51067 -22.55779,-4.8735 -31.65738,-8.27123 -51.32185,-19.16322 -87.01511,-60.85584 -99.51868,-116.24588 -1.89343,-8.38782 -2.03371,-10.50088 -2.03371,-30.63508 0,-20.1342 0.14028,-22.24726 2.03371,-30.63507 7.19236,-31.86174 21.39493,-58.23734 43.02281,-79.8977 21.60728,-21.63973 47.95963,-35.75699 80.15385,-42.93934 8.78995,-1.96099 10.8511,-2.10615 29.90477,-2.10615 18.83194,0 21.17453,0.16036 29.3709,2.01058 25.74964,5.81264 45.5354,14.73764 64.72579,29.19667 29.97121,22.58184 50.04646,54.76312 59.05381,94.66517 1.93376,8.56644 2.07847,10.6457 2.07847,29.86339 0,22.39415 -0.70111,27.56324 -6.17954,45.55956 -10.46403,34.37374 -33.18433,64.8329 -63.28229,84.83714 -14.88925,9.89595 -37.98551,19.47793 -55.24451,22.91937 -14.38475,2.86831 -39.6185,3.67621 -52.428,1.67857 z m 25.50861,-13.44401 c 2.08748,-1.64201 2.14061,-1.91226 2.14061,-10.88741 v -9.20361 l -2.9689,-1.75169 c -2.52833,-1.49176 -3.30796,-1.61126 -5.25379,-0.80526 -1.25669,0.52053 -2.61305,1.36408 -3.01414,1.87455 -0.40109,0.51046 -0.96817,5.04236 -1.26017,10.07088 l -0.53092,9.14278 2.65497,1.61875 c 3.38744,2.06532 5.55142,2.04982 8.23234,-0.059 z m -95.7559,-42.08907 c 1.78733,-1.61768 4.63881,-4.46322 6.33664,-6.32343 3.05658,-3.34891 3.07525,-3.41027 1.89581,-6.23306 -1.45689,-3.48681 -4.65056,-5.75835 -7.03289,-5.00223 -0.94791,0.30085 -4.4389,3.16729 -7.75776,6.36985 -6.43953,6.21389 -7.23684,8.20028 -4.72874,11.78109 1.58368,2.26102 4.21896,3.41233 6.41243,2.80149 0.89366,-0.24886 3.08719,-1.77603 4.87451,-3.39371 z m 191.97838,1.94219 c 1.32175,-1.11218 2.60492,-3.03152 2.85148,-4.2652 0.39226,-1.96271 -0.38039,-3.08078 -6.1819,-8.94552 -3.64661,-3.68635 -7.18665,-6.70109 -7.86676,-6.69942 -2.27043,0.006 -6.46733,3.17091 -6.99573,5.27624 -0.38187,1.5215 0.071,2.93577 1.68668,5.26718 3.21155,4.63426 10.62036,11.38886 12.49192,11.38886 0.88613,0 2.69257,-0.90996 4.01431,-2.02214 z M 412.83425,350.5935 c 7.63924,-2.85051 12.78807,-7.56406 16.78623,-15.36709 2.18553,-4.26542 3.10907,-14.78779 1.73477,-19.76513 -0.75693,-2.74137 0.008,-6.74762 6.74205,-35.33095 9.72599,-41.28031 15.86359,-68.63335 15.86359,-70.69828 0,-1.158 -0.72498,-1.78558 -2.51755,-2.17929 -1.38466,-0.30412 -2.79053,-0.24177 -3.12415,0.13855 -0.33363,0.38033 -8.21275,12.02475 -17.50916,25.8765 -30.18737,44.97949 -39.56095,58.17384 -46.82753,65.91494 -9.42429,10.03972 -11.66973,14.63355 -11.66973,23.87446 0,6.18161 0.2853,7.50216 2.6652,12.33644 7.08304,14.3877 22.9545,20.76032 37.85628,15.19985 z M 281.50652,325.68048 c 1.68425,-3.01385 1.68604,-3.0785 0.16731,-6.02079 l -1.53522,-2.97422 -9.15742,-0.30774 c -8.19837,-0.27551 -9.34887,-0.14063 -10.98537,1.28789 -2.18988,1.91158 -2.47105,6.53205 -0.56325,9.25583 1.18499,1.69179 1.86686,1.80561 10.81806,1.80561 h 9.55337 z m 265.0498,-0.16319 1.63749,-3.20976 -1.65942,-2.81252 -1.65943,-2.81252 -9.10127,-0.32645 c -8.7274,-0.31303 -9.17638,-0.24733 -10.92923,1.59929 -2.15527,2.27056 -2.41022,6.32918 -0.56325,8.96612 1.18666,1.69419 1.86243,1.80561 10.95115,1.80561 h 9.68645 z M 317.1812,237.61898 c 0.95577,-0.89183 1.9674,-2.76968 2.24807,-4.173 0.47024,-2.35122 0.0165,-3.04818 -5.78081,-8.87971 -4.91552,-4.94452 -6.79745,-6.32822 -8.60681,-6.32822 -2.7221,0 -7.06523,3.91108 -7.06523,6.36239 0,1.90191 5.99416,9.48826 10.34755,13.0961 3.39952,2.81732 5.77711,2.79651 8.85723,-0.0776 z m 183.35904,-4.55428 c 7.04643,-7.04325 7.34471,-8.30234 3.00887,-12.70051 -1.81401,-1.84009 -2.76105,-2.22871 -4.41787,-1.81287 -2.85946,0.71768 -14.29925,11.8493 -14.29538,13.9103 0.002,0.89023 0.72747,2.80677 1.61289,4.25897 1.36222,2.2342 2.08539,2.64036 4.70113,2.64036 2.77232,0 3.74123,-0.64965 9.39036,-6.29625 z m -94.21543,-31.94641 c 2.08902,-1.64323 2.14061,-1.90714 2.14061,-10.95115 v -9.26735 l -3.30293,-1.68503 c -3.24219,-1.65403 -3.35052,-1.65728 -5.89004,-0.17655 l -2.58711,1.50847 -0.63095,9.29976 -0.63095,9.29976 2.25579,1.82391 c 2.81818,2.27863 5.87064,2.33094 8.64558,0.14818 z"
       id="path96" />
    <path
       style="fill:#ffffff;fill-opacity:1;stroke:#0a4f00;stroke-width:0.270209"
       d="m 397.09197,335.12611 c -4.79648,-1.91261 -8.12461,-6.86346 -8.12461,-12.08599 0,-10.95158 12.54273,-16.81687 20.68132,-9.6711 3.90424,3.42797 5.78752,8.62447 4.51882,12.46867 -2.56621,7.77571 -10.30807,11.98698 -17.07553,9.28842 z"
       id="path97" />
    <text
       xml:space="preserve"
       style="font-size:40px;line-height:0.8;font-family:'Patrick Hand';-inkscape-font-specification:'Patrick Hand';text-align:center;letter-spacing:0px;word-spacing:0px;writing-mode:lr-tb;direction:ltr;text-orientation:upright;text-anchor:middle;fill:#1a1a1a;stroke:none;stroke-width:0.332598"
       x="410.9986"
       y="595.14789"
       id="text1"><tspan
         sodipodi:role="line"
         x="410.9986"
         y="595.14789"
         id="tspan3"
         style="font-style:normal;font-variant:normal;font-weight:bold;font-stretch:normal;font-size:64px;line-height:0.8;font-family:'Patrick Hand';-inkscape-font-specification:'Patrick Hand Bold';stroke:none">Uups...</tspan><tspan
         sodipodi:role="line"
         x="410.9986"
         y="630.35266"
         id="tspan4" /><tspan
         sodipodi:role="line"
         x="410.9986"
         y="699.67487"
         id="tspan5"
         style="font-size:96px;line-height:0.8;stroke:none">EN DESARROLO</tspan></text>
  </g>
</svg>
