<?xml version="1.0" encoding="UTF-8" standalone="no"?>
<!-- Created with Inkscape (http://www.inkscape.org/) -->

<svg
   version="1.1"
   id="svg1"
   width="950.66669"
   height="290.66666"
   viewBox="0 0 950.66669 290.66666"
   sodipodi:docname="Logo_vitawiki_pre.svg"
   inkscape:version="1.4.3 (0d15f75, 2025-12-25)"
   xmlns:inkscape="http://www.inkscape.org/namespaces/inkscape"
   xmlns:sodipodi="http://sodipodi.sourceforge.net/DTD/sodipodi-0.dtd"
   xmlns="http://www.w3.org/2000/svg"
   xmlns:svg="http://www.w3.org/2000/svg">
  <defs
     id="defs1" />
  <sodipodi:namedview
     id="namedview1"
     pagecolor="#ffffff"
     bordercolor="#000000"
     borderopacity="0.25"
     inkscape:showpageshadow="2"
     inkscape:pageopacity="0.0"
     inkscape:pagecheckerboard="0"
     inkscape:deskcolor="#d1d1d1"
     inkscape:zoom="0.46625174"
     inkscape:cx="559.78343"
     inkscape:cy="20.375259"
     inkscape:window-width="1920"
     inkscape:window-height="991"
     inkscape:window-x="-9"
     inkscape:window-y="-9"
     inkscape:window-maximized="1"
     inkscape:current-layer="g1" />
  <g
     inkscape:groupmode="layer"
     inkscape:label="Image"
     id="g1">
    <g
       id="g2"
       transform="translate(12.60838,8.7630465)">
      <path
         style="fill:#007ffe"
         d="m 638.8419,223.84208 -4.49145,-1.33361 2.81279,-2.99408 c 1.54704,-1.64674 4.03114,-7.75775 5.52022,-13.58002 6.93541,-27.11719 3.713,-80.4489 -6.74738,-111.671063 -2.16484,-6.461602 -3.93607,-12.344845 -3.93607,-13.073874 0,-0.729029 2.197,-2.243469 4.88221,-3.365423 17.18971,-7.182318 32.89684,14.207354 37.09065,50.50932 1.12503,9.73835 3.44294,9.98289 8.36087,0.88208 15.05933,-27.86785 25.33071,-41.520876 34.51583,-45.879499 4.05733,-1.925332 5.70971,-2.057382 9.92841,-0.79343 5.82398,1.744908 6.74585,3.70176 6.74585,14.319501 0,10.845368 -5.89403,22.169438 -16.56513,31.826228 -10.33631,9.35382 -25.78254,17.24204 -33.8417,17.28258 -4.32884,0.0218 -5.99482,0.61986 -6.54764,2.35061 -0.851,2.66431 0.41943,5.38225 2.04594,4.37702 1.32331,-0.81785 14.70028,13.29722 25.59584,27.00813 14.1382,17.79143 18.19976,29.30067 13.17649,37.33822 -4.96646,7.94664 -9.72644,7.45359 -19.35549,-2.00489 -8.13912,-7.99493 -15.87092,-19.82891 -19.55271,-29.92657 -1.5602,-4.27899 -3.50633,-7.77797 -4.32474,-7.77552 -0.8184,0.002 -2.55588,5.50413 -3.86106,12.22593 -2.76824,14.25676 -8.82074,27.87258 -14.04284,31.59103 -4.66349,3.32071 -11.64576,4.39852 -17.40889,2.68733 z m 119.94939,-4.65319 c -4.23241,-5.38063 -4.60313,-8.41905 -3.66676,-30.05256 0.84077,-19.4249 4.00442,-36.20696 7.65464,-40.6052 0.84545,-1.01871 3.76859,-2.52075 6.49586,-3.33786 4.05547,-1.21505 5.7195,-1.09222 9.13564,0.67434 2.29733,1.18799 4.71484,3.20378 5.37225,4.47952 2.37083,4.60073 2.96831,28.55757 1.03072,41.32836 -2.90182,19.12618 -8.59099,28.20034 -18.99338,30.29424 -3.49474,0.70346 -4.64672,0.24771 -7.02897,-2.78084 z m -161.78596,-2.72505 c -8.21286,-2.43319 -10.12477,-5.58507 -11.70024,-19.28838 -2.4579,-21.37869 -1.05839,-41.96149 3.4453,-50.67068 3.12678,-6.04653 13.82218,-8.2512 22.47979,-4.63382 6.78532,2.83509 7.99153,8.1283 7.00347,30.73327 -0.87862,20.1014 -2.76618,34.05855 -5.31431,39.29561 -2.50173,5.14172 -8.326,6.81206 -15.91401,4.564 z M 462.21196,211.9285 c -5.64813,-4.44282 -6.65074,-11.12428 -5.70872,-38.0435 0.51043,-14.58581 0.30693,-26.96736 -0.51498,-31.33333 -2.76892,-14.70847 -11.66744,-27.61295 -23.04278,-33.41621 -6.0973,-3.11061 -16.5724,-3.80893 -28.47455,-1.89825 -6.29857,1.01112 -6.99245,0.85867 -8.44499,-1.85542 -2.23088,-4.16845 0.17678,-9.333327 7.49569,-16.079664 10.15853,-9.363803 24.59602,-13.638498 35.26606,-10.441676 3.21253,0.962498 8.63318,4.462431 12.77714,8.249772 11.6311,10.630173 21.69513,34.641618 21.74881,51.889778 0.0294,9.46399 2.96058,8.10962 9.45182,-4.36736 5.91,-11.35978 10.69957,-16.33362 15.11059,-15.69194 3.45354,0.50239 8.27624,7.67504 10.74097,15.97469 2.40149,8.08669 5.30624,11.36144 8.05457,9.08053 3.98876,-3.31038 8.66989,-16.16656 11.36241,-31.20552 4.8642,-27.168765 6.89659,-30.754876 21.60121,-38.114769 8.54926,-4.27904 12.1228,-5.3423 17.95509,-5.3423 6.2702,0 7.82281,0.541302 11.17894,3.897436 3.1114,3.111401 3.8956,5.060973 3.88833,9.666666 -0.008,5.159823 -0.53049,6.121333 -4.945,9.102564 -8.28798,5.597095 -21.76391,18.873553 -24.39807,24.036943 -1.36995,2.68532 -4.02614,10.34305 -5.90265,17.01718 -2.99613,10.65624 -3.41184,14.67021 -3.41184,32.94379 0,26.18552 -2.30399,37.90608 -8.71092,44.31301 -2.39566,2.39565 -5.00628,4.35574 -5.80138,4.35574 -4.00578,0 -9.66771,-8.38839 -16.19934,-24 -8.61401,-20.58879 -11.38921,-25.33333 -14.81809,-25.33333 -6.09025,0 -7.43653,2.20756 -11.16473,18.30723 -4.4202,19.088 -6.62803,24.02882 -12.50272,27.97942 -5.58923,3.75864 -8.12573,3.8208 -12.59087,0.30852 z m 134.98967,-93.40284 c -5.60232,-5.9973 -4.84181,-13.32418 1.95444,-18.829349 4.37829,-3.546552 9.41055,-2.924583 14.07471,1.739579 5.47087,5.47087 5.55211,11.39701 0.23429,17.08977 -2.76748,2.96259 -5.08154,4.141 -8.13172,4.141 -3.05019,0 -5.36425,-1.17841 -8.13172,-4.141 z"
         id="path4" />
      <path
         style="fill:#1fa200"
         d="m 288.27749,219.6287 c -1.56971,-1.67088 -3.81514,-5.72088 -4.98986,-9 -1.90669,-5.3224 -1.96467,-9.22704 -0.54037,-36.39492 1.42288,-27.14097 1.34636,-32.34553 -0.70745,-48.11478 l -2.30291,-17.68189 -11.69248,-2.0725 c -12.08555,-2.14217 -20.71495,-5.38089 -21.78804,-8.177312 -0.95913,-2.499445 1.4326,-15.539308 3.25234,-17.731957 0.89672,-1.080479 3.4741,-2.961519 5.72751,-4.180087 10.66092,-5.765069 76.08959,1.907701 84.03683,9.854935 3.43785,3.437849 2.75228,16.321701 -1.12646,21.169491 -2.93824,3.67233 -3.93592,4.00485 -13.45841,4.48572 l -10.28493,0.51936 -2.13823,4.84762 c -2.80369,6.35626 -2.53729,21.48669 0.94222,53.51428 2.94261,27.08566 2.54552,32.26915 -3.22852,42.14418 -1.76152,3.01263 -4.70625,6.46263 -6.54383,7.66667 -4.8694,3.19055 -11.7232,2.80673 -15.15741,-0.84881 z m -161.09768,-6.59187 c -6.29666,-4.85068 -11.33714,-12.67323 -16.13252,-25.03684 -2.32241,-5.9877 -3.00406,-11.47587 -3.7148,-29.90906 C 105.54765,111.80072 101.09699,97.941766 87.138891,95.209837 80.847595,93.978482 78.14299,97.700285 72.731186,115.03626 67.845924,130.68553 64.382054,136 59.067413,136 c -3.671197,0 -6.903347,-5.21325 -8.780417,-14.16223 -2.898672,-13.81951 4.294859,-31.613715 17.531985,-43.36781 8.747007,-7.767029 25.755532,-15.803576 33.443829,-15.802244 7.95934,0.0014 20.76278,6.064841 26.42592,12.514808 10.98184,12.507615 16.1673,28.890336 17.24536,54.484136 0.51105,12.13286 1.27283,18.31529 2.2524,18.27997 0.8141,-0.0293 5.38018,-7.05735 10.14685,-15.61778 21.13188,-37.950639 41.99496,-64.4148 52.30659,-66.349273 5.83157,-1.094008 9.59722,-0.02024 13.09478,3.733954 4.13655,4.440058 5.58705,11.778609 3.79987,19.224681 -2.97194,12.382198 -18.40852,40.935748 -43.82351,81.061778 -13.32653,21.04038 -14.64448,22.875 -22.92321,31.90978 -12.3234,13.44881 -24.2924,17.53308 -32.60805,11.12706 z m 112.88628,-0.76562 c -5.09394,-5.09394 -6.73687,-13.90529 -6.7131,-36.00351 0.0229,-21.28202 1.00338,-24.34346 8.3841,-26.17864 6.9167,-1.7198 11.74576,0.24079 14.59418,5.92523 1.91993,3.83151 2.33031,8.29879 2.32589,25.31904 -0.006,23.016 -1.17526,29.389 -5.9684,32.52958 -4.73091,3.09981 -8.39293,2.63804 -12.62267,-1.5917 z m 112.65616,2.75619 c -8.21261,-2.08612 -12.74241,-9.21812 -12.69296,-19.98458 0.0444,-9.66318 6.80149,-22.7663 13.74937,-26.66225 4.13281,-2.31742 15.21713,-1.95356 22.22135,0.72945 5.45467,2.08945 6.11219,2.82932 7.23435,8.14038 0.81247,3.8453 0.72174,8.83461 -0.26544,14.59775 l -1.49979,8.75571 6.77458,6.16325 c 6.51004,5.9226 6.65057,6.19644 3.59877,7.01319 -5.09568,1.36377 -8.47227,1.03294 -13.11946,-1.28538 -2.96561,-1.47944 -4.63525,-1.71563 -5.23765,-0.74091 -1.72094,2.78453 -14.65818,4.82413 -20.76312,3.27339 z m 14.3817,-12.41852 c 9.79283,-7.70304 2.59374,-26.33063 -9.04698,-23.40899 -3.90703,0.9806 -8.71109,7.8864 -8.71865,12.53298 -0.003,1.68642 0.89501,4.8066 1.99499,6.93373 3.62717,7.01418 9.87868,8.57691 15.77064,3.94228 z M 239.27273,135.39393 c -1.8,-1.8 -3.27272,-4.52727 -3.27272,-6.0606 0,-3.59733 5.736,-9.33333 9.33333,-9.33333 1.53333,0 4.2606,1.47272 6.0606,3.27272 1.8,1.8 3.27273,4.52728 3.27273,6.06061 0,1.53333 -1.47273,4.2606 -3.27273,6.0606 -1.8,1.8 -4.52727,3.27273 -6.0606,3.27273 -1.53333,0 -4.26061,-1.47273 -6.06061,-3.27273 z M 776.1639,115.50144 c -6.99017,-2.52889 -9.49932,-6.58087 -9.48419,-15.31582 0.038,-21.934383 22.33672,-41.0575 58.55173,-50.213253 17.89177,-4.523335 61.43525,-8.104411 61.43525,-5.052519 0,2.284177 -11.43669,19.500113 -18.63488,28.051568 -15.7685,18.732975 -43.80682,37.104934 -64.64526,42.358464 -9.40122,2.37012 -20.94449,2.44287 -27.22265,0.17156 z m 13.97785,-14.30126 c 2.71741,-2.552878 3.58335,-2.670473 9.81823,-1.333331 8.75304,1.877191 9.37337,1.849641 9.37337,-0.416322 0,-1.179088 -2.11797,-2.233265 -5.66667,-2.820471 -8.03398,-1.329389 -8.33602,-1.785112 -4.10933,-6.200352 3.60197,-3.762647 4.13677,-3.90264 11.60364,-3.037475 6.29712,0.729629 7.70949,0.551835 7.22334,-0.909299 -0.33237,-0.998947 -2.35481,-2.122159 -4.49431,-2.496027 -2.1395,-0.373869 -3.89,-1.232871 -3.89,-1.908894 0,-0.676023 2.90953,-3.319055 6.46564,-5.873405 l 6.46563,-4.644272 8.9623,2.886499 c 10.28822,3.313545 10.77309,3.380388 10.77309,1.485131 0,-1.251154 -2.84818,-2.722918 -11.33333,-5.856356 -2.22894,-0.823115 -1.57235,-1.421599 4,-3.646021 3.66667,-1.463694 11.73338,-4.009273 17.92603,-5.656843 12.37169,-3.291518 16.80387,-7.12794 6.58704,-5.701632 -5.0098,0.699387 -23.08101,6.309761 -30.99631,9.623093 -2.23668,0.936271 -2.38314,0.589352 -1.47512,-3.494029 1.44626,-6.503793 1.44278,-7.146057 -0.0416,-7.677789 -0.73333,-0.262687 -2.48981,3.037313 -3.90329,7.333333 -1.41348,4.29602 -3.09817,8.022512 -3.74377,8.281093 -0.6456,0.258581 -3.84431,2.508581 -7.10825,5 -3.26394,2.491419 -6.22924,4.529853 -6.58956,4.529853 -0.36032,0 -0.65513,-2.4 -0.65513,-5.333333 0,-3.851852 -0.55555,-5.333333 -2,-5.333333 -1.54804,0 -2,1.748716 -2,7.738444 0,7.020265 -0.4126,8.138349 -4.44577,12.047455 l -4.44577,4.309012 -2.2191,-5.649258 c -3.10222,-7.897496 -5.74418,-5.203737 -2.87422,2.930583 1.959,5.552409 1.92558,6.04891 -0.64084,9.520181 -1.4892,2.014245 -2.70763,3.986565 -2.70763,4.382925 0,1.66383 3.37293,0.52199 6.14173,-2.07916 z"
         id="path3" />
      <path
         style="fill:#000000"
         d="m 639.99138,228.12915 c -8.70713,-2.75701 -15.44648,-8.12916 -10.19802,-8.12916 15.11963,0 16.91748,-79.28991 2.81042,-123.946648 -1.8879,-5.976251 -4.29607,-11.197276 -5.35149,-11.602279 -3.39821,-1.304018 -2.05688,-4.321949 3.57839,-8.051195 11.72453,-7.758926 25.62309,-3.570829 34.60609,10.427962 5.02889,7.836854 10.33213,23.90315 11.46372,34.72965 l 0.82371,7.8808 5.19459,-9.57329 c 13.3124,-24.533884 23.3991,-36.650285 33.82563,-40.632213 5.58837,-2.13422 6.26548,-2.130659 12.00992,0.06316 7.6303,2.914038 9.0066,6.144692 8.27397,19.421806 -0.7222,13.088027 -5.12058,21.315747 -17.54364,32.817597 -8.87487,8.21677 -22.87142,16.27036 -31.90547,18.35836 l -3.75415,0.86768 9.56855,10.2459 c 22.29234,23.87042 32.31924,41.49231 29.89349,52.53666 -1.41696,6.45135 -8.13085,13.12272 -13.20638,13.12272 -8.18462,0 -22.08343,-13.79824 -31.09742,-30.87241 l -3.98012,-7.53907 -2.97579,11.26458 c -3.2684,12.37222 -9.26423,22.4533 -15.49124,26.04617 -4.86394,2.8064 -12.1915,3.94164 -16.54476,2.56322 z m 16.25941,-6.9744 c 5.2221,-3.71845 11.2746,-17.33427 14.04284,-31.59103 1.30518,-6.7218 3.04266,-12.22347 3.86106,-12.22593 0.81841,-0.002 2.76454,3.49653 4.32474,7.77552 3.68179,10.09766 11.41359,21.93164 19.55271,29.92657 9.62905,9.45848 14.38903,9.95153 19.35549,2.00489 5.02327,-8.03755 0.96171,-19.54679 -13.17649,-37.33822 -10.89556,-13.71091 -24.27253,-27.82598 -25.59584,-27.00813 -1.62651,1.00523 -2.89694,-1.71271 -2.04594,-4.37702 0.55282,-1.73075 2.2188,-2.32884 6.54764,-2.35061 8.05916,-0.0405 23.50539,-7.92876 33.8417,-17.28258 10.6711,-9.65679 16.56513,-20.98086 16.56513,-31.826228 0,-10.617741 -0.92187,-12.574593 -6.74585,-14.319501 -12.0893,-3.622042 -24.05723,8.946029 -44.44424,46.672929 -4.91793,9.10081 -7.23584,8.85627 -8.36087,-0.88208 -3.32707,-28.799449 -14.22098,-49.17477 -27.63762,-51.691745 -4.82396,-0.904982 -14.33524,2.112465 -14.33524,4.547848 0,0.729029 1.77123,6.612272 3.93607,13.073874 10.46038,31.222163 13.68279,84.553873 6.74738,111.671063 -1.48908,5.82227 -3.97318,11.93328 -5.52022,13.58002 l -2.81279,2.99408 4.49145,1.33361 c 5.76313,1.71119 12.7454,0.63338 17.40889,-2.68733 z m -370.84037,0.42048 c -7.97222,-8.38054 -8.44726,-11.86126 -6.63879,-48.6437 1.3808,-28.08408 1.31512,-34.05344 -0.50686,-46.06798 -1.15127,-7.59171 -2.3974,-14.1073 -2.76918,-14.47908 -0.37178,-0.37178 -5.31607,-1.55211 -10.98732,-2.62295 -12.35696,-2.33323 -20.17952,-6.05659 -21.8267,-10.389004 -2.53014,-6.654771 1.64502,-20.856825 7.37278,-25.078942 5.47376,-4.034886 16.54853,-5.294471 32.37806,-3.682508 31.20023,3.177204 35.88846,3.813975 44.17514,6.000023 16.67382,4.398598 18.72579,6.588828 18.72579,19.987499 0,8.112912 -0.34025,9.145182 -4.51649,13.702252 -4.26189,4.65052 -5.05307,4.95867 -14.03467,5.46617 -8.01614,0.45296 -9.77024,0.98719 -11.11557,3.38541 -2.24465,4.00136 -1.73774,20.86242 1.55435,51.70232 2.76725,25.92322 2.76975,26.27086 0.24772,34.37416 -4.37905,14.06993 -12.03482,21.43776 -22.27558,21.43776 -3.98896,0 -5.87122,-0.97963 -9.78268,-5.09143 z m 18.02448,-1.09772 c 1.83758,-1.20404 4.78231,-4.65404 6.54383,-7.66667 5.77404,-9.87503 6.17113,-15.05852 3.22852,-42.14418 -3.47951,-32.02759 -3.74591,-47.15802 -0.94222,-53.51428 l 2.13823,-4.84762 10.28493,-0.51936 c 9.52249,-0.48087 10.52017,-0.81339 13.45841,-4.48572 3.87874,-4.84779 4.56431,-17.731642 1.12646,-21.169491 -3.47906,-3.479054 -18.51229,-7.309941 -37.66999,-9.599362 -33.49019,-4.00221 -46.31776,-3.035848 -52.09435,3.924514 -1.81974,2.192649 -4.21147,15.232512 -3.25234,17.731957 1.07309,2.796422 9.70249,6.035142 21.78804,8.177312 l 11.69248,2.0725 2.30291,17.68189 c 2.05381,15.76925 2.13033,20.97381 0.70745,48.11478 -1.4243,27.16788 -1.36632,31.07252 0.54037,36.39492 2.9598,8.26205 6.82576,12.03796 12.32504,12.03796 2.46464,0 5.98464,-0.98512 7.82223,-2.18915 z m 454.64939,3.35056 c -5.56369,-4.3764 -7.60225,-10.61418 -7.51433,-22.99308 0.21436,-30.18208 5.11048,-53.93078 11.81456,-57.30676 9.39204,-4.72956 17.71359,-3.63243 23.36178,3.08006 2.69115,3.19826 3.29732,5.754 4.03519,17.01334 1.92451,29.36671 -5.23961,55.95766 -16.21192,60.17346 -7.9936,3.07132 -11.61286,3.07903 -15.48528,0.033 z m 15.24906,-4.99984 c 8.59456,-5.93067 14.03092,-28.90823 12.49886,-52.82824 -0.97789,-15.26759 -1.67595,-17.16122 -7.42154,-20.13238 -3.41614,-1.76656 -5.08017,-1.88939 -9.13564,-0.67434 -2.72727,0.81711 -5.65041,2.31915 -6.49586,3.33786 -3.65022,4.39824 -6.81387,21.1803 -7.65464,40.6052 -0.93637,21.63351 -0.56565,24.67193 3.66676,30.05256 2.38225,3.02855 3.53423,3.4843 7.02897,2.78084 2.29886,-0.46274 5.67976,-1.87641 7.51309,-3.1415 z m -174.6753,2.59264 c -6.06234,-1.84408 -11.93544,-5.42934 -13.96298,-8.52376 -2.24985,-3.43371 -4.64887,-23.16257 -4.6488,-38.23045 6e-5,-12.10278 3.06423,-27.48403 6.35611,-31.90581 5.04916,-6.78222 17.53815,-8.523 26.98178,-3.76085 8.60673,4.34012 9.75109,8.63624 8.79019,32.99999 -0.85129,21.58459 -2.84674,36.13943 -5.72051,41.72563 -2.04448,3.97417 -9.14384,9.00287 -12.45383,8.82145 -1.1,-0.0603 -3.50388,-0.56708 -5.34196,-1.1262 z m 14.26129,-9.52103 c 2.54813,-5.23706 4.43569,-19.19421 5.31431,-39.29561 0.98806,-22.60497 -0.21815,-27.89818 -7.00347,-30.73327 -8.65761,-3.61738 -19.35301,-1.41271 -22.47979,4.63382 -4.50369,8.70919 -5.9032,29.29199 -3.4453,50.67068 1.57547,13.70331 3.48738,16.85519 11.70024,19.28838 7.58801,2.24806 13.41228,0.57772 15.91401,-4.564 z m -487.66339,4.90886 c -5.71679,-3.88466 -10.38125,-10.47444 -16.14473,-22.80871 -4.20679,-9.00284 -4.39892,-10.15956 -5.42583,-32.66666 -1.21597,-26.65066 -3.707904,-46.41242 -6.76558,-53.65309 -1.429801,-3.38581 -3.670831,-5.73277 -6.98155,-7.31154 -4.818027,-2.297558 -4.905872,-2.288014 -7.410564,0.80515 -1.394106,1.72165 -4.106979,8.31184 -6.028607,14.64487 -4.704562,15.50464 -7.569197,20.80591 -12.302218,22.7664 -5.838075,2.41821 -9.737076,1.29583 -13.153889,-3.78651 -7.400586,-11.00801 -7.299591,-25.55093 0.284669,-40.991494 6.122282,-12.464164 16.943579,-22.592745 31.84274,-29.804353 12.87265,-6.23072 19.505739,-6.791721 30.715099,-2.597762 20.06172,7.506047 32.85921,30.509792 34.99097,62.896969 l 0.85362,12.96863 7.82305,-13.5407 c 23.4459,-40.58185 42.62624,-62.396569 54.86146,-62.396569 12.56723,0 20.94721,12.455295 18.18378,27.026823 -2.41259,12.721526 -19.66905,45.048216 -44.84343,84.005626 -4.63188,7.16785 -8.4216,13.36343 -8.4216,13.76794 0,1.67772 -12.13672,16.31377 -18.30608,22.07589 -12.81175,11.96604 -24.45389,14.93044 -33.77131,8.59909 z m 20.97334,-3.58637 c 5.82406,-2.81938 18.64522,-15.72369 24.70799,-24.86823 17.31122,-26.1107 40.74336,-65.41732 48.15638,-80.78071 7.42394,-15.386016 9.43839,-23.312584 7.6307,-30.02581 -2.46872,-9.16812 -8.415,-13.194397 -17.08443,-11.568003 -10.31163,1.934473 -31.17471,28.398634 -52.30659,66.349273 -4.76667,8.56043 -9.33275,15.58843 -10.14685,15.61778 -0.97957,0.0353 -1.74135,-6.14711 -2.2524,-18.27997 -0.84188,-19.98684 -2.97042,-29.852705 -9.03085,-41.858342 C 130.38097,76.868759 124.5507,70.814059 115.34546,66.459189 104.04687,61.113987 97.813926,61.390647 84.596139,67.82405 66.126231,76.813782 55.494401,88.813866 51.076732,105.65721 c -1.954039,7.45021 -2.079929,10.02952 -0.789736,16.18056 1.87707,8.94898 5.10922,14.16223 8.780417,14.16223 5.314641,0 8.778511,-5.31447 13.663773,-20.96374 5.411804,-17.335975 8.116409,-21.057778 14.407705,-19.826423 13.958099,2.731929 18.408759,16.590883 20.193599,62.881093 0.90774,23.54226 2.3127,29.89353 9.27999,41.95111 9.00043,15.57613 17.16341,19.20888 29.61681,13.18029 z m 95.57756,5.45463 c -4.83211,-1.94985 -9.47647,-9.52766 -11.17324,-18.23041 -0.97571,-5.00444 -1.40608,-15.82271 -1.10014,-27.65436 0.49079,-18.98026 0.58574,-19.51746 4.06462,-22.99634 2.7338,-2.7338 5.22427,-3.69994 10.71027,-4.15488 6.27608,-0.52047 7.66639,-0.15673 11.39583,2.98138 6.35976,5.35139 7.30092,10.49023 6.739,36.79571 -0.54143,25.34567 -1.13947,27.6796 -8.19495,31.98163 -4.55223,2.7757 -7.8811,3.11745 -12.44139,1.27727 z m 10.88191,-4.81405 c 4.79314,-3.14058 5.96243,-9.51358 5.9684,-32.52958 0.004,-17.02025 -0.40596,-21.48753 -2.32589,-25.31904 -2.84842,-5.68444 -7.67748,-7.64503 -14.59418,-5.92523 -7.38072,1.83518 -8.3612,4.89662 -8.3841,26.17864 -0.0238,22.09822 1.61916,30.90957 6.7131,36.00351 4.22974,4.22974 7.89176,4.69151 12.62267,1.5917 z m 97.51817,4.19222 c -10.11493,-3.60647 -14.18408,-10.44533 -14.19949,-23.86451 -0.005,-4.47579 1.2454,-9.10113 4.04874,-14.97499 5.20498,-10.90606 10.96428,-15.47111 20.518,-16.26338 8.23856,-0.6832 20.5588,2.47639 23.85394,6.11748 2.83903,3.13709 4.22739,16.45892 2.49565,23.94671 l -1.31436,5.68312 8.16889,7.27662 c 5.10747,4.54959 7.67911,7.7232 6.86197,8.46824 -4.07124,3.71205 -18.74929,5.57987 -21.5827,2.74647 -1.07881,-1.07881 -3.77367,-0.89949 -10.01852,0.66666 -10.20507,2.55934 -12.15092,2.57975 -18.83212,0.19758 z m 16.42694,-3.49531 c 3.28196,-0.75624 6.36513,-2.01885 6.8515,-2.80581 0.6024,-0.97472 2.27204,-0.73853 5.23765,0.74091 4.64719,2.31832 8.02378,2.64915 13.11946,1.28538 3.0518,-0.81675 2.91127,-1.09059 -3.59877,-7.01319 l -6.77458,-6.16325 1.49979,-8.75571 c 0.98718,-5.76314 1.07791,-10.75245 0.26544,-14.59775 -1.12216,-5.31106 -1.77968,-6.05093 -7.23435,-8.14038 -7.00422,-2.68301 -18.08854,-3.04687 -22.22135,-0.72945 -6.94788,3.89595 -13.70499,16.99907 -13.74937,26.66225 -0.0749,16.30117 9.63801,23.42649 26.60458,19.517 z m -10.96723,-10.66664 c -2.97566,-1.73317 -6.33477,-8.18794 -6.32832,-12.16031 0.008,-4.64658 4.81162,-11.55238 8.71865,-12.53298 11.64072,-2.92164 18.83981,15.70595 9.04698,23.40899 -3.76735,2.96341 -7.78071,3.41407 -11.43731,1.2843 z m 9.6667,-5.22652 c 4.94024,-4.94024 1.71448,-16 -4.66667,-16 -3.34125,0 -7.33333,5.08083 -7.33333,9.33333 0,4.25251 3.99208,9.33334 7.33333,9.33334 1.1,0 3.2,-1.2 4.66667,-2.66667 z m 93.30851,14.95557 c -6.4329,-6.43291 -7.36071,-12.8388 -6.14731,-42.44318 0.9418,-22.97766 -0.0681,-31.63658 -4.80254,-41.17905 -3.47769,-7.00938 -9.75499,-13.55869 -16.35866,-17.06753 -5.41713,-2.87836 -5.99178,-2.91494 -29.93545,-1.90557 -7.25837,0.30599 -7.27152,0.29929 -9.17175,-4.66945 -1.55975,-4.07845 -1.60157,-5.70352 -0.23185,-9.01031 2.58539,-6.241683 11.08258,-14.165823 20.29963,-18.930634 10.8573,-5.612741 23.67551,-6.1093 32.85698,-1.272832 13.65706,7.194045 24.35143,23.931316 29.9972,46.947246 l 2.9699,12.10731 3.21823,-6.87107 c 3.97107,-8.4784 10.69543,-14.6605 15.94644,-14.6605 5.0271,0 11.31115,7.45692 14.32613,17 1.21635,3.85 2.7357,7 3.37635,7 1.98773,0 6.04046,-10.83671 8.22759,-22 1.14941,-5.86666 2.7557,-14.00809 3.56954,-18.092054 2.30991,-11.591441 6.48604,-18.645376 13.96899,-23.595119 13.17674,-8.716014 29.83653,-12.185037 37.6624,-7.842341 5.26414,2.921153 8.23459,8.8617 8.24422,16.487459 0.009,6.928644 -0.0235,6.981772 -7.65788,12.617765 -18.50289,13.65954 -22.05304,18.51519 -27.64455,37.81031 -2.95645,10.20209 -3.35545,14.09019 -3.35545,32.69751 0,11.6152 -0.67463,24.29808 -1.49917,28.18418 -2.15265,10.1455 -7.1385,19.30407 -11.82958,21.72992 -9.23567,4.77595 -15.45067,-1.53297 -25.87458,-26.26562 -4.23462,-10.0474 -8.57632,-18.99585 -9.64824,-19.88546 -3.19574,-2.65223 -5.11365,0.9137 -8.27471,15.38501 -4.20384,19.24511 -7.8014,26.35539 -15.12996,29.90309 -8.31552,4.02547 -11.27437,3.64846 -17.10192,-2.17908 z m 16.16098,-2.00225 c 5.87469,-3.9506 8.08252,-8.89142 12.50272,-27.97942 3.7282,-16.09967 5.07448,-18.30723 11.16473,-18.30723 3.42888,0 6.20408,4.74454 14.81809,25.33333 6.53163,15.61161 12.19356,24 16.19934,24 0.7951,0 3.40572,-1.96009 5.80138,-4.35574 6.40693,-6.40693 8.71092,-18.12749 8.71092,-44.31301 0,-18.27358 0.41571,-22.28755 3.41184,-32.94379 1.87651,-6.67413 4.5327,-14.33186 5.90265,-17.01718 2.63416,-5.16339 16.11009,-18.439848 24.39807,-24.036943 4.41451,-2.981231 4.93685,-3.942741 4.945,-9.102564 0.007,-4.605693 -0.77693,-6.555265 -3.88833,-9.666666 -3.35613,-3.356134 -4.90874,-3.897436 -11.17894,-3.897436 -5.83229,0 -9.40583,1.06326 -17.95509,5.3423 -14.70462,7.359893 -16.73701,10.946004 -21.60121,38.114769 -2.69252,15.03896 -7.37365,27.89514 -11.36241,31.20552 -2.74833,2.28091 -5.65308,-0.99384 -8.05457,-9.08053 -2.46473,-8.29965 -7.28743,-15.4723 -10.74097,-15.97469 -4.41102,-0.64168 -9.20059,4.33216 -15.11059,15.69194 -6.49124,12.47698 -9.42237,13.83135 -9.45182,4.36736 -0.0537,-17.24816 -10.11771,-41.259605 -21.74881,-51.889778 -4.14396,-3.787341 -9.56461,-7.287274 -12.77714,-8.249772 -10.67004,-3.196822 -25.10753,1.077873 -35.26606,10.441676 -7.31891,6.746337 -9.72657,11.911214 -7.49569,16.079664 1.45254,2.71409 2.14642,2.86654 8.44499,1.85542 11.90215,-1.91068 22.37725,-1.21236 28.47455,1.89825 11.37534,5.80326 20.27386,18.70774 23.04278,33.41621 0.82191,4.36597 1.02541,16.74752 0.51498,31.33333 -0.94202,26.91922 0.0606,33.60068 5.70872,38.0435 4.46514,3.51228 7.00164,3.45012 12.59087,-0.30852 z M 238.44137,140.6273 c -4.0848,-2.21834 -6.95868,-9.43527 -5.72099,-14.36662 0.98208,-3.91288 5.35107,-8.23806 9.63389,-9.53726 4.71505,-1.43033 12.09307,1.65154 14.33559,5.98808 6.41242,12.40025 -5.9877,24.57429 -18.24849,17.9158 z m 12.95257,-5.23337 c 1.8,-1.8 3.27273,-4.52727 3.27273,-6.0606 0,-3.59733 -5.736,-9.33333 -9.33333,-9.33333 -1.53333,0 -4.26061,1.47272 -6.06061,3.27272 -1.8,1.8 -3.27272,4.52728 -3.27272,6.06061 0,1.53333 1.47272,4.2606 3.27272,6.0606 1.8,1.8 4.52728,3.27273 6.06061,3.27273 1.53333,0 4.2606,-1.47273 6.0606,-3.27273 z m 346.33747,-11.33996 c -4.91993,-2.99985 -8.40027,-8.93834 -8.39308,-14.32109 0.0103,-7.68637 8.50851,-16.39955 15.99502,-16.39955 7.61011,0 15.99003,8.73453 15.99003,16.66667 0,8.06751 -8.39798,16.67445 -16.25715,16.66168 -1.68642,-0.003 -4.98709,-1.17621 -7.33482,-2.60771 z m 15.73366,-5.52831 c 5.31782,-5.69276 5.23658,-11.6189 -0.23429,-17.08977 -4.66416,-4.664162 -9.69642,-5.286131 -14.07471,-1.739579 -6.79625,5.505169 -7.55676,12.832049 -1.95444,18.829349 2.76747,2.96259 5.08153,4.141 8.13172,4.141 3.05018,0 5.36424,-1.17841 8.13172,-4.141 z m 161.82069,1.03957 c -9.58086,-3.70498 -12.61908,-8.39612 -12.61908,-19.4844 0,-22.369434 21.23649,-42.334749 56,-52.647959 12.5862,-3.733918 30.55548,-6.184746 51.44998,-7.017258 24.44262,-0.973882 24.75302,-0.734419 16.67457,12.863626 -15.88572,26.739637 -38.21972,47.237771 -64.89915,59.564431 -16.85578,7.78785 -36.51657,10.62332 -46.60632,6.72156 z m 28.10079,-4.23535 c 20.83844,-5.25353 48.87676,-23.625489 64.64526,-42.358464 7.19819,-8.551455 18.63488,-25.767391 18.63488,-28.051568 0,-3.051892 -43.54348,0.529184 -61.43525,5.052519 -36.21501,9.155753 -58.51373,28.27887 -58.55173,50.213253 -0.0151,8.73495 2.49402,12.78693 9.48419,15.31582 6.27816,2.27131 17.82143,2.19856 27.22265,-0.17156 z m -19.38653,-12.05054 c 0,-0.39636 1.21843,-2.36868 2.70763,-4.382925 2.56642,-3.471271 2.59984,-3.967772 0.64084,-9.520181 -2.86996,-8.13432 -0.228,-10.828079 2.87422,-2.930583 l 2.2191,5.649258 4.44577,-4.309012 c 4.03317,-3.909106 4.44577,-5.02719 4.44577,-12.047455 0,-5.989728 0.45196,-7.738444 2,-7.738444 1.44445,0 2,1.481481 2,5.333333 0,2.933333 0.29481,5.333333 0.65513,5.333333 0.36032,0 3.40628,-2.1 6.7688,-4.666667 3.36251,-2.566666 6.62003,-4.666666 7.23893,-4.666666 0.61889,0 1.54129,-1.95 2.04978,-4.333333 1.62406,-7.61221 4.5701,-13.58393 5.99729,-12.156733 0.86498,0.86498 0.68668,3.40449 -0.5207,7.416326 l -1.83611,6.100924 5.87892,-2.600528 c 7.95824,-3.520307 26.82278,-9.093322 30.78071,-9.093322 6.60031,0 1.83958,3.199109 -9.08672,6.106077 -6.19265,1.64757 -14.25936,4.193149 -17.92603,5.656843 -5.57235,2.224422 -6.22894,2.822906 -4,3.646021 8.48515,3.133438 11.33333,4.605202 11.33333,5.856356 0,1.895257 -0.48487,1.828414 -10.77309,-1.485131 l -8.9623,-2.886499 -6.46563,4.644272 c -3.55611,2.55435 -6.46564,5.197382 -6.46564,5.873405 0,0.676023 1.7505,1.535025 3.89,1.908894 2.1395,0.373868 4.16194,1.49708 4.49431,2.496027 0.48615,1.461134 -0.92622,1.638928 -7.22334,0.909299 -7.46687,-0.865165 -8.00167,-0.725172 -11.60364,3.037475 -4.22669,4.41524 -3.92465,4.870963 4.10933,6.200352 3.5487,0.587206 5.66667,1.641383 5.66667,2.820471 0,2.265963 -0.62033,2.293513 -9.37337,0.416322 -6.23488,-1.337142 -7.10082,-1.219547 -9.81823,1.333331 -2.7688,2.60115 -6.14173,3.74299 -6.14173,2.07916 z"
         id="path2" />
    </g>
  </g>
</svg>
