<?xml version="1.0" encoding="UTF-8" standalone="no"?>
<!-- Created with Inkscape (http://www.inkscape.org/) -->

<svg
   version="1.1"
   id="svg1"
   width="1080"
   height="1080"
   viewBox="0 0 1080 1080"
   sodipodi:docname="LOGO_OFICIAL.svg"
   inkscape:version="1.4.3 (0d15f75, 2025-12-25)"
   xmlns:inkscape="http://www.inkscape.org/namespaces/inkscape"
   xmlns:sodipodi="http://sodipodi.sourceforge.net/DTD/sodipodi-0.dtd"
   xmlns="http://www.w3.org/2000/svg"
   xmlns:svg="http://www.w3.org/2000/svg">
  <defs
     id="defs1" />
  <sodipodi:namedview
     id="namedview1"
     pagecolor="#ffffff"
     bordercolor="#000000"
     borderopacity="0.25"
     inkscape:showpageshadow="2"
     inkscape:pageopacity="0.0"
     inkscape:pagecheckerboard="0"
     inkscape:deskcolor="#d1d1d1"
     inkscape:zoom="0.50610513"
     inkscape:cx="242.04457"
     inkscape:cy="674.76099"
     inkscape:window-width="1920"
     inkscape:window-height="991"
     inkscape:window-x="-9"
     inkscape:window-y="-9"
     inkscape:window-maximized="1"
     inkscape:current-layer="g1" />
  <g
     inkscape:groupmode="layer"
     inkscape:label="Image"
     id="g1">
    <g
       id="g2"
       transform="matrix(1.4547539,0,0,1.4547539,-219.66738,-210.35656)">
      <path
         style="fill:#54ade5"
         d="m 529.59686,739.3046 c -6.8398,-2.36269 -15.75985,-10.85478 -19.5856,-18.64592 -5.60657,-11.4178 -5.97478,-15.49735 -5.9939,-66.40868 L 504,608 h -41.16809 c -45.53617,0 -50.6772,-0.46433 -61.33191,-5.53945 -33.35616,-15.88841 -25.90891,-54.95521 12,-62.94963 5.52141,-1.16438 15.81875,-1.47986 48.75,-1.49356 L 504,538 l 0.0174,-46.75 c 0.0138,-37.27746 0.3157,-48.16835 1.48974,-53.75 3.81598,-18.14202 16.48782,-31.7151 31.0084,-33.21376 16.54432,-1.70752 32.885,13.92071 36.38192,34.79567 C 573.5899,443.2157 574,462.8359 574,491.83191 V 538 h 41.16809 c 45.53617,0 50.6772,0.46433 61.33191,5.53945 33.35616,15.88841 25.90891,54.95521 -12,62.94963 -5.52141,1.16438 -15.81875,1.47986 -48.75,1.49356 L 574,608 v 45.66809 c 0,28.63166 -0.41132,48.12346 -1.10258,52.25 -2.28047,13.61334 -11.43491,27.25914 -21.58267,32.17159 -5.96522,2.88771 -15.35473,3.41297 -21.71789,1.21492 z"
         id="path6" />
      <path
         style="fill:#a8d51a"
         d="m 644.32835,753.73508 c -3.8629,-2.97196 -8.29296,-7.98342 -8.31238,-9.40329 -0.009,-0.64252 -0.28911,-1.88002 -0.62296,-2.75 -0.5116,-1.33323 0.32853,-1.58179 5.34636,-1.58179 3.27435,0 7.28484,-0.66423 8.91222,-1.47608 1.62738,-0.81184 7.88402,-5.98393 13.90364,-11.49353 6.01962,-5.50961 11.60624,-9.90431 12.41471,-9.76602 0.86056,0.1472 1.75112,1.9064 2.14822,4.24354 1.6395,9.64942 2.89455,20.34839 2.88845,24.62338 l -0.007,4.63128 -4.75,1.20409 c -7.58409,1.9225 -15.24314,3.13703 -22.42165,3.55551 -5.68108,0.33118 -7.0916,0.0658 -9.5,-1.78709 z m 40.26351,-5.95414 c -0.20301,-0.70452 -0.8978,-7.73108 -1.54397,-15.61459 -0.64617,-7.8835 -1.39813,-14.91548 -1.67102,-15.62662 -0.28948,-0.75437 0.46595,-1.53116 1.81349,-1.86476 5.80851,-1.43797 31.18687,-4.69002 32.7438,-4.19587 2.28831,0.72629 7.50967,5.49061 8.79033,8.0209 0.55674,1.1 1.30682,3.63388 1.66684,5.63085 0.87774,4.86863 -3.5662,17.09848 -7.04014,19.3747 -5.45548,3.57457 -33.95129,7.07954 -34.75933,4.27539 z m 19.10783,-2.32617 c 5.94401,-0.71859 8.47061,-2.72843 6.21441,-4.94339 -1.15321,-1.13212 -2.98227,-1.20037 -9.9141,-0.36992 -9.33424,1.11826 -12.22881,2.67299 -9.99273,5.3673 0.9515,1.14649 2.36435,1.46042 4.9141,1.09188 1.96824,-0.2845 5.91849,-0.80013 8.77832,-1.14587 z"
         id="path5" />
      <path
         style="fill:#7fcc24"
         d="m 708.47293,533.9562 c -1.23436,-1.99724 1.86468,-3.97687 23.88015,-15.25438 34.39051,-17.61667 46.92063,-26.20721 59.62331,-40.87725 3.01202,-3.47852 4.81202,-5.8041 4,-5.16797 -26.89055,21.06595 -41.9002,30.14041 -68.6466,41.50199 -20.43343,8.6799 -22.08884,8.89012 -21.51247,2.73184 1.70401,-18.20668 10.21045,-43.34974 18.97695,-56.09141 18.3457,-26.66457 46.46814,-38.98059 95.70573,-41.91366 18.99344,-1.13143 43.70524,-0.0801 45.73088,1.94552 1.39861,1.39861 -3.66915,15.97881 -10.72262,30.84954 -21.88509,46.14004 -62.46076,74.68771 -116.35301,81.86207 -12.62854,1.68116 -29.75626,1.9121 -30.68232,0.41371 z M 665.5,515.57624 c -10.73754,-6.2998 -22.40292,-16.83154 -27.68861,-24.99783 -14.18751,-21.91945 -12.78716,-59.84672 4.06067,-109.97973 3.77955,-11.24657 5.09342,-13.54725 7.75719,-13.58337 2.03042,-0.0275 24.2172,21.9788 30.30682,30.06033 7.03509,9.33627 11.32697,17.94637 14.27046,28.62844 1.86542,6.76972 2.15372,10.49439 2.19016,28.29592 0.0387,18.92652 -0.44411,25.98686 -3.54483,51.83276 -1.09245,9.10609 -2.52407,11.89503 -4.891,9.5281 -0.49758,-0.49758 -2.05973,-8.99483 -3.47143,-18.88278 -3.33649,-23.36964 -6.00736,-36.33145 -9.00803,-43.71614 -2.6106,-6.42472 -9.44825,-19.12842 -9.99917,-18.5775 -0.1845,0.1845 1.65727,7.01396 4.09282,15.17658 2.43555,8.16262 5.30263,19.18315 6.37128,24.49006 2.14413,10.64772 4.59608,40.85164 3.6291,44.70441 -0.91548,3.64758 -3.83304,3.03004 -14.07543,-2.97925 z"
         id="path4" />
      <path
         style="fill:#ec1b23"
         d="m 630.66001,738.31234 c -3.16105,-0.96623 -6.5069,-3.09817 -9.64531,-6.14588 -4.02271,-3.90646 -4.99504,-5.59454 -5.97022,-10.36495 -1.39948,-6.84606 -0.10368,-15.63949 2.8598,-19.40695 2.05722,-2.61534 13.85066,-13.66909 25.7881,-24.17069 l 7.13424,-6.27612 13.71453,14.76045 c 18.00671,19.37997 19.09252,20.81882 17.32934,22.96364 -3.46666,4.21702 -29.28867,27.39029 -32.06355,28.77458 -3.85498,1.92312 -12.61747,1.86176 -19.14693,-0.13408 z m 43.26573,-49.01349 c -7.38416,-8.12888 -14.87652,-16.27985 -16.6497,-18.11327 l -3.22395,-3.33349 6.78504,-6.67605 c 8.97029,-8.82617 22.87617,-21.26818 26.81724,-23.99419 3.55798,-2.46102 10.22671,-2.88715 16.84563,-1.07642 6.12169,1.67471 12.72523,9.03644 14.75314,16.44704 2.68292,9.80423 3.03918,14.56468 1.38403,18.49393 -0.91044,2.16136 -5.91553,7.60295 -12.81552,13.9332 -6.22691,5.71273 -13.38007,12.34704 -15.89591,14.74291 l -4.57426,4.35611 z m 18.73446,0.86271 c 6.26032,-4.96505 16.86355,-16.33992 18.89704,-20.27224 3.58637,-6.93528 -1.34274,-7.84102 -9.29281,-1.70758 -6.19679,4.78079 -16.79492,16.02343 -18.85808,20.00491 -3.39567,6.55296 2.02331,7.70945 9.25385,1.97491 z"
         id="path3" />
      <path
         style="fill:#bf1a2b"
         d="M 445.5,806.51281 C 407.56075,798.9217 369.63715,774.22646 323.99093,727.38803 311.24497,714.30916 307.76669,709.94813 295.36735,691.5 271.57134,656.09554 256.43519,630.81921 243.15369,604.3068 216.90035,551.9001 203.19755,501.48988 199.03448,442 c -1.89987,-27.14902 -0.70034,-44.76158 4.9718,-73 13.38293,-66.62621 44.27287,-102.20134 108.10827,-124.50547 39.00591,-13.62869 73.20723,-13.57422 114.88545,0.18299 23.22716,7.66685 58.96789,24.24388 95.56301,44.32338 8.01814,4.39951 14.7786,7.9991 15.02325,7.9991 0.24465,0 8.73849,-3.58058 18.8752,-7.95685 108.22226,-46.72219 158.5308,-47.42236 214.03854,-2.97887 8.66412,6.93712 39.07717,36.29159 40.66507,39.24964 1.24149,2.31275 -0.64381,4.80978 -2.98818,3.95778 C 807.2546,328.93652 803.125,325.96201 799,322.66167 749.99854,283.45651 697.94662,279.78506 632.5,310.9177 c -21.81431,10.37695 -50.23646,28.31552 -79,49.86063 -7.7,5.76763 -14.6837,10.67733 -15.51933,10.91044 -0.83563,0.23312 -5.78563,-1.93395 -11,-4.8157 -15.0007,-8.29022 -52.1177,-26.1464 -67.98067,-32.70402 -80.49393,-33.27551 -128.39663,-30.88371 -162.09063,8.09326 -22.75946,26.32796 -30.52188,76.81127 -20.79443,135.23769 8.45937,50.80991 34.09234,129.31688 53.71017,164.5 51.54316,92.43881 93.65853,134.26525 147.17489,146.16521 9.18093,2.04148 13.10673,2.33125 31.25,2.30658 19.14706,-0.026 20.75,0.10769 20.75,1.73095 0,1.04244 -1.01855,2.0148 -2.5,2.38662 -1.375,0.3451 -2.5,1.00754 -2.5,1.4721 0,1.04897 -16.6047,6.44005 -28,9.0908 -11.28855,2.62592 -40.27307,3.40681 -50.5,1.36055 z"
         id="path2" />
    </g>
  </g>
</svg>
