<?xml version="1.0" encoding="UTF-8"?>
<!-- Created with Inkscape (http://www.inkscape.org/) -->
<svg width="432" height="641.33" version="1.1" viewBox="0 0 432 641.33" xmlns="http://www.w3.org/2000/svg">
 <g transform="translate(4.978 -4.978)">
  <path d="m178.16 619.96c-26.328-3.0136-53.054-10.335-69.259-18.972-16.062-8.5609-27.462-22.102-27.533-32.702-0.10102-15.098 17.553-30.901 45.798-40.996 12.92-4.6179 33.952-9.4135 44.728-10.199l5.8883-0.42912 10.835 29.333c10.682 28.919 10.889 29.333 14.673 29.333 3.6926 0 4.3602-1.1076 17.623-29.235 7.5819-16.079 14.024-29.474 14.317-29.767 1.3454-1.3454 34.558 5.4879 47.145 9.6999 17.774 5.9477 28.149 11.477 37.406 19.937 16.169 14.778 16.169 29.284 0 44.062-20.322 18.573-59.062 29.657-107.11 30.644-13.2 0.27114-28.73-0.0485-34.511-0.7102zm26.501-395.61c-19.01-6.8062-29.866-25.21-26.272-44.536 5.2135-28.034 37.246-41.906 60.777-26.32 20.295 13.443 23.863 41.669 7.6065 60.184-9.4916 10.81-28.365 15.593-42.112 10.671z" fill="#c2c2c2"/>
  <path d="m142.06 400.95c-33.679-91.09-62.287-167.72-63.574-170.28-4.9351-9.8412-5.8951-45.008-1.7365-63.613 2.6611-11.905 8.2483-27.886 13.348-38.179 26.776-54.041 79.621-85.384 137.9-81.787 54.647 3.3729 112.5 51.457 131.85 109.58 8.1473 24.48 8.4652 49.115 0.93963 72.826-2.6133 8.2339-153.99 332.99-156.67 336.12-0.44812 0.52289-28.37-73.577-62.049-164.67zm94.585-172.1c9.2976-4.2566 18.634-13.656 23.095-23.251 2.9469-6.3383 3.5314-9.471 3.5314-18.929s-0.58445-12.59-3.5314-18.929c-9.1494-19.679-30.52-30.656-51.322-26.363-10.245 2.1144-16.765 5.5651-23.79 12.59-25.328 25.328-13.128 69.22 21.681 78.001 8.1058 2.0448 22.227 0.59244 30.337-3.1202z" fill="#d14a58"/>
  <path d="m177.33 626.49c-26.765-2.7405-52.857-9.8854-71.09-19.467-11.031-5.7967-23.989-17.321-27.737-24.667-6.7119-13.156-3.6482-27.371 8.4756-39.325 14.242-14.042 41.306-25.65 71.095-30.494 8.0248-1.3048 15.057-2.7544 15.626-3.2212 1.2914-1.0582-98.097-269.9-100.77-272.56-4.5994-4.5994-6.9842-46.365-3.697-64.746 10.183-56.94 46.813-103.17 96.958-122.38 17.787-6.812 29.482-8.7818 52.47-8.8371 25.605-0.06157 36.134 2.4047 59.333 13.897 19.445 9.633 36.092 21.995 50.125 37.223 38.88 42.19 53.488 93.139 39.593 138.09-1.5866 5.1333-31.045 69.333-65.462 142.67-34.418 73.333-62.655 134.17-62.75 135.19-0.1255 1.3495 3.8249 2.5336 14.494 4.3443 50.152 8.5117 84.641 31.249 84.641 55.801 0 38.339-78.851 66.928-161.31 58.485zm75.198-9.0722c18.039-3.1482 40.097-10.126 51.906-16.42 4.4122-2.3517 11.314-7.2844 15.337-10.962 16.169-14.778 16.169-29.284 0-44.062-9.2565-8.4599-19.631-13.99-37.406-19.937-12.588-4.2121-45.8-11.045-47.145-9.6999-0.29235 0.29234-6.7349 13.687-14.317 29.767-13.263 28.128-13.931 29.235-17.623 29.235-3.7838 0-3.991-0.41422-14.673-29.333l-10.835-29.333-5.8883 0.42912c-10.776 0.78533-31.807 5.5809-44.728 10.199-28.244 10.095-45.899 25.898-45.798 40.996 0.07093 10.601 11.471 24.141 27.533 32.702 16.205 8.6372 42.932 15.958 69.259 18.972 17.08 1.955 56.254 0.61111 74.376-2.5515zm28.729-215.3c41.983-89.406 77.769-167.08 79.526-172.62 5.2104-16.417 6.5918-30.154 4.6903-46.641-3.7169-32.226-19.519-63.37-45.433-89.544-27.588-27.864-60.233-44.257-92.043-46.22-72.362-4.4663-134.44 44.772-151.25 119.97-4.1586 18.605-3.1986 53.772 1.7365 63.613 1.2871 2.5667 29.896 79.194 63.574 170.28s61.601 165.19 62.049 164.67c0.44811-0.52288 35.164-74.101 77.147-163.51zm-74.948-170.14c-23.83-6.0116-39.201-30.325-34.271-54.211 2.1144-10.245 5.5651-16.765 12.59-23.79 22.827-22.827 61.383-15.757 75.113 13.773 2.9469 6.3383 3.5314 9.471 3.5314 18.929s-0.58445 12.59-3.5314 18.929c-4.4611 9.5949-13.797 18.994-23.095 23.251-8.1094 3.7126-22.231 5.165-30.337 3.1202zm28.937-9.8668c27.139-13.278 29.334-51.764 3.9121-68.603-23.531-15.586-55.563-1.7148-60.777 26.32-5.9536 32.014 27.306 56.745 56.865 42.283z"/>
 </g>
</svg>
